<?xml version="1.0" standalone="no"?>
<!DOCTYPE svg PUBLIC "-//W3C//DTD SVG 20010904//EN"
 "http://www.w3.org/TR/2001/REC-SVG-20010904/DTD/svg10.dtd">
<svg version="1.0" xmlns="http://www.w3.org/2000/svg"
 width="877.000000pt" height="877.000000pt" viewBox="0 0 877.000000 877.000000"
 preserveAspectRatio="xMidYMid meet">
<metadata>
Created by potrace 1.14, written by Peter Selinger 2001-2017
</metadata>
<g transform="translate(0.000000,877.000000) scale(0.100000,-0.100000)"
fill="#000000" stroke="none">
<path d="M745 8763 c-54 -6 -181 -45 -245 -75 -199 -92 -389 -301 -450 -497
-11 -36 -26 -79 -33 -96 -9 -23 -13 -376 -15 -1522 l-3 -1492 33 4 c18 3 593
39 1278 81 685 43 1247 79 1249 80 2 2 -8 200 -22 441 -15 240 -26 438 -24
439 1 1 236 -80 522 -181 1794 -630 2725 -955 2736 -955 8 0 685 252 1504 559
l1490 559 3 929 c2 813 0 938 -14 1008 -39 201 -119 350 -256 481 -122 116
-199 160 -393 222 -46 15 -376 16 -3690 18 -2002 0 -3653 -1 -3670 -3z"/>
<path d="M7363 5447 c-766 -287 -1393 -524 -1393 -527 0 -3 101 -40 224 -83
l225 -79 1164 181 c640 100 1169 181 1175 181 9 0 12 106 12 425 0 234 -3 425
-7 424 -5 0 -635 -235 -1400 -522z"/>
<path d="M2800 5727 c-1 -61 172 -2836 178 -2858 l7 -26 1683 830 1683 831
-108 39 c-89 32 -117 38 -158 33 -43 -4 -329 -48 -1400 -215 -132 -21 -244
-35 -248 -31 -4 4 -9 39 -10 79 l-2 73 472 177 c260 97 474 179 477 181 2 3
-527 192 -1177 420 -650 228 -1230 431 -1289 452 -107 37 -108 37 -108 15z"/>
<path d="M7695 4829 c-555 -87 -1012 -159 -1015 -159 -3 -1 71 -28 164 -61 93
-32 171 -61 174 -63 2 -2 -97 -54 -220 -114 -123 -60 -927 -457 -1788 -882
-2132 -1053 -2265 -1117 -2268 -1110 -1 3 -15 198 -31 433 -16 235 -30 429
-32 431 -2 2 -593 -34 -1314 -80 -721 -46 -1322 -83 -1338 -84 l-28 0 4 -1212
c3 -1081 5 -1218 19 -1263 64 -197 125 -302 244 -416 136 -129 249 -187 448
-230 87 -19 179 -19 3674 -19 2130 0 3599 4 3621 9 20 5 61 15 91 21 148 33
295 116 412 232 66 66 147 178 169 234 5 16 16 42 24 59 20 45 33 92 50 180
13 70 15 343 15 2168 l0 2087 -32 -1 c-18 -1 -487 -73 -1043 -160z"/>
<path d="M5237 4651 c-169 -64 -303 -117 -299 -119 9 -3 914 137 919 142 7 6
-266 96 -288 95 -13 -1 -162 -53 -332 -118z"/>
</g>
</svg>
